<svg data-v-423bf9ae="" xmlns="http://www.w3.org/2000/svg" viewBox="0 0 639 90" class="iconLeft"><!----><!----><!----><g data-v-423bf9ae="" id="602ad6a4-ab06-422d-9027-1236c33e6f16" fill="#000000" transform="matrix(3.5377356421697215,0,0,3.5377356421697215,172.40581078743585,-7.676883972817983)"><path d="M8.46 13.48L8.46 13.48L8.46 13.48Q8.46 12.74 8.38 12.07L8.38 12.07L8.38 12.07Q8.31 11.40 8.14 10.89L8.14 10.89L8.14 10.89Q7.98 10.38 7.71 10.07L7.71 10.07L7.71 10.07Q7.44 9.77 7.06 9.77L7.06 9.77L7.06 9.77Q6.77 9.77 6.60 9.87L6.60 9.87L6.60 9.87Q6.43 9.98 6.34 10.15L6.34 10.15L6.34 10.15Q6.25 10.33 6.22 10.56L6.22 10.56L6.22 10.56Q6.19 10.79 6.19 11.05L6.19 11.05L6.19 16.46L6.19 16.46Q6.19 16.71 6.22 16.95L6.22 16.95L6.22 16.95Q6.25 17.18 6.34 17.35L6.34 17.35L6.34 17.35Q6.43 17.53 6.60 17.63L6.60 17.63L6.60 17.63Q6.77 17.74 7.06 17.74L7.06 17.74L7.06 17.74Q7.44 17.74 7.71 17.43L7.71 17.43L7.71 17.43Q7.98 17.12 8.14 16.57L8.14 16.57L8.14 16.57Q8.31 16.01 8.38 15.22L8.38 15.22L8.38 15.22Q8.46 14.44 8.46 13.48ZM3.73 8.43L7.06 8.43L7.06 8.43Q8.17 8.43 9.04 8.62L9.04 8.62L9.04 8.62Q9.91 8.81 10.57 9.15L10.57 9.15L10.57 9.15Q11.23 9.50 11.69 9.97L11.69 9.97L11.69 9.97Q12.15 10.45 12.44 11.02L12.44 11.02L12.44 11.02Q12.74 11.59 12.87 12.23L12.87 12.23L12.87 12.23Q13.00 12.87 13.00 13.55L13.00 13.55L13.00 13.55Q13.00 14.31 12.89 15.04L12.89 15.04L12.89 15.04Q12.79 15.77 12.52 16.41L12.52 16.41L12.52 16.41Q12.26 17.05 11.79 17.59L11.79 17.59L11.79 17.59Q11.33 18.12 10.61 18.50L10.61 18.50L10.61 18.50Q9.88 18.89 8.87 19.10L8.87 19.10L8.87 19.10Q7.85 19.32 6.49 19.32L6.49 19.32L3.73 19.32L3.73 19.32Q2.92 19.32 2.29 19.23L2.29 19.23L2.29 19.23Q1.67 19.13 1.24 18.94L1.24 18.94L1.24 18.94Q0.81 18.74 0.59 18.44L0.59 18.44L0.59 18.44Q0.37 18.13 0.37 17.71L0.37 17.71L0.37 17.71Q0.37 17.54 0.45 17.47L0.45 17.47L0.45 17.47Q0.53 17.40 0.65 17.36L0.65 17.36L0.65 17.36Q0.77 17.32 0.91 17.29L0.91 17.29L0.91 17.29Q1.05 17.25 1.17 17.17L1.17 17.17L1.17 17.17Q1.29 17.08 1.37 16.92L1.37 16.92L1.37 16.92Q1.46 16.75 1.46 16.45L1.46 16.45L1.46 11.28L1.46 11.28Q1.46 10.98 1.37 10.81L1.37 10.81L1.37 10.81Q1.29 10.64 1.17 10.56L1.17 10.56L1.17 10.56Q1.05 10.47 0.91 10.44L0.91 10.44L0.91 10.44Q0.77 10.40 0.65 10.37L0.65 10.37L0.65 10.37Q0.53 10.33 0.45 10.26L0.45 10.26L0.45 10.26Q0.37 10.19 0.37 10.02L0.37 10.02L0.37 10.02Q0.37 9.60 0.59 9.29L0.59 9.29L0.59 9.29Q0.81 8.99 1.24 8.80L1.24 8.80L1.24 8.80Q1.67 8.61 2.29 8.52L2.29 8.52L2.29 8.52Q2.92 8.43 3.73 8.43L3.73 8.43ZM18.73 8.02L18.72 11.45L18.72 11.45Q18.87 11.28 19.13 11.07L19.13 11.07L19.13 11.07Q19.39 10.87 19.78 10.69L19.78 10.69L19.78 10.69Q20.16 10.51 20.67 10.38L20.67 10.38L20.67 10.38Q21.18 10.26 21.84 10.26L21.84 10.26L21.84 10.26Q22.61 10.26 23.15 10.46L23.15 10.46L23.15 10.46Q23.70 10.65 24.08 10.98L24.08 10.98L24.08 10.98Q24.46 11.31 24.69 11.73L24.69 11.73L24.69 11.73Q24.92 12.16 25.04 12.63L25.04 12.63L25.04 12.63Q25.16 13.10 25.20 13.57L25.20 13.57L25.20 13.57Q25.25 14.05 25.25 14.47L25.25 14.47L25.25 16.63L25.25 16.63Q25.25 16.93 25.32 17.09L25.32 17.09L25.32 17.09Q25.40 17.25 25.51 17.34L25.51 17.34L25.51 17.34Q25.63 17.42 25.76 17.46L25.76 17.46L25.76 17.46Q25.89 17.49 26.01 17.53L26.01 17.53L26.01 17.53Q26.13 17.57 26.20 17.63L26.20 17.63L26.20 17.63Q26.28 17.70 26.28 17.85L26.28 17.85L26.28 17.85Q26.28 18.63 25.47 18.97L25.47 18.97L25.47 18.97Q24.67 19.32 23.15 19.32L23.15 19.32L23.15 19.32Q22.41 19.32 21.84 19.24L21.84 19.24L21.84 19.24Q21.27 19.15 20.88 18.97L20.88 18.97L20.88 18.97Q20.49 18.79 20.29 18.52L20.29 18.52L20.29 18.52Q20.09 18.24 20.09 17.85L20.09 17.85L20.09 17.85Q20.09 17.70 20.17 17.63L20.17 17.63L20.17 17.63Q20.24 17.57 20.36 17.53L20.36 17.53L20.36 17.53Q20.47 17.49 20.60 17.46L20.60 17.46L20.60 17.46Q20.73 17.43 20.85 17.35L20.85 17.35L20.85 17.35Q20.97 17.27 21.04 17.11L21.04 17.11L21.04 17.11Q21.12 16.95 21.12 16.66L21.12 16.66L21.12 13.87L21.12 13.87Q21.12 13.43 21.05 13.08L21.05 13.08L21.05 13.08Q20.99 12.74 20.84 12.50L20.84 12.50L20.84 12.50Q20.69 12.26 20.44 12.14L20.44 12.14L20.44 12.14Q20.18 12.01 19.80 12.01L19.80 12.01L19.80 12.01Q19.60 12.01 19.43 12.07L19.43 12.07L19.43 12.07Q19.27 12.12 19.13 12.20L19.13 12.20L19.13 12.20Q18.99 12.28 18.88 12.37L18.88 12.37L18.88 12.37Q18.78 12.46 18.70 12.53L18.70 12.53L18.70 16.69L18.70 16.69Q18.70 16.97 18.78 17.12L18.78 17.12L18.78 17.12Q18.85 17.28 18.97 17.36L18.97 17.36L18.97 17.36Q19.08 17.44 19.21 17.47L19.21 17.47L19.21 17.47Q19.34 17.50 19.45 17.53L19.45 17.53L19.45 17.53Q19.56 17.57 19.64 17.63L19.64 17.63L19.64 17.63Q19.71 17.70 19.71 17.85L19.71 17.85L19.71 17.85Q19.71 18.63 18.91 18.97L18.91 18.97L18.91 18.97Q18.10 19.32 16.58 19.32L16.58 19.32L16.58 19.32Q15.11 19.32 14.32 18.97L14.32 18.97L14.32 18.97Q13.53 18.63 13.53 17.85L13.53 17.85L13.53 17.85Q13.53 17.70 13.60 17.63L13.60 17.63L13.60 17.63Q13.67 17.57 13.78 17.53L13.78 17.53L13.78 17.53Q13.90 17.50 14.02 17.47L14.02 17.47L14.02 17.47Q14.15 17.45 14.26 17.37L14.26 17.37L14.26 17.37Q14.38 17.29 14.45 17.14L14.45 17.14L14.45 17.14Q14.52 16.99 14.52 16.71L14.52 16.71L14.52 9.03L14.52 9.03Q14.52 8.75 14.45 8.60L14.45 8.60L14.45 8.60Q14.38 8.46 14.26 8.38L14.26 8.38L14.26 8.38Q14.15 8.30 14.02 8.27L14.02 8.27L14.02 8.27Q13.90 8.24 13.78 8.21L13.78 8.21L13.78 8.21Q13.67 8.18 13.60 8.11L13.60 8.11L13.60 8.11Q13.53 8.05 13.53 7.90L13.53 7.90L13.53 7.90Q13.53 7.12 14.32 6.77L14.32 6.77L14.32 6.77Q15.11 6.43 16.58 6.43L16.58 6.43L16.58 6.43Q17.32 6.43 17.74 6.50L17.74 6.50L17.74 6.50Q18.17 6.58 18.39 6.76L18.39 6.76L18.39 6.76Q18.61 6.94 18.67 7.25L18.67 7.25L18.67 7.25Q18.73 7.55 18.73 8.02L18.73 8.02ZM27.84 8.11L27.84 8.11L27.84 8.11Q27.84 7.77 27.96 7.51L27.96 7.51L27.96 7.51Q28.08 7.25 28.27 7.06L28.27 7.06L28.27 7.06Q28.46 6.88 28.70 6.75L28.70 6.75L28.70 6.75Q28.94 6.62 29.19 6.55L29.19 6.55L29.19 6.55Q29.44 6.47 29.66 6.44L29.66 6.44L29.66 6.44Q29.89 6.41 30.06 6.41L30.06 6.41L30.06 6.41Q30.25 6.41 30.48 6.44L30.48 6.44L30.48 6.44Q30.72 6.47 30.97 6.55L30.97 6.55L30.97 6.55Q31.21 6.62 31.45 6.75L31.45 6.75L31.45 6.75Q31.69 6.88 31.88 7.06L31.88 7.06L31.88 7.06Q32.07 7.25 32.18 7.51L32.18 7.51L32.18 7.51Q32.29 7.77 32.29 8.11L32.29 8.11L32.29 8.11Q32.29 8.44 32.18 8.70L32.18 8.70L32.18 8.70Q32.07 8.96 31.88 9.15L31.88 9.15L31.88 9.15Q31.69 9.33 31.45 9.46L31.45 9.46L31.45 9.46Q31.21 9.58 30.97 9.66L30.97 9.66L30.97 9.66Q30.72 9.73 30.48 9.77L30.48 9.77L30.48 9.77Q30.25 9.80 30.06 9.80L30.06 9.80L30.06 9.80Q29.89 9.80 29.66 9.77L29.66 9.77L29.66 9.77Q29.44 9.73 29.19 9.66L29.19 9.66L29.19 9.66Q28.94 9.58 28.70 9.46L28.70 9.46L28.70 9.46Q28.46 9.33 28.27 9.15L28.27 9.15L28.27 9.15Q28.08 8.96 27.96 8.71L27.96 8.71L27.96 8.71Q27.84 8.45 27.84 8.11ZM32.08 12.05L32.08 16.71L32.08 16.71Q32.08 16.99 32.16 17.14L32.16 17.14L32.16 17.14Q32.23 17.29 32.34 17.37L32.34 17.37L32.34 17.37Q32.46 17.45 32.59 17.47L32.59 17.47L32.59 17.47Q32.72 17.50 32.83 17.53L32.83 17.53L32.83 17.53Q32.94 17.57 33.02 17.63L33.02 17.63L33.02 17.63Q33.09 17.70 33.09 17.85L33.09 17.85L33.09 17.85Q33.09 18.63 32.29 18.97L32.29 18.97L32.29 18.97Q31.48 19.32 29.96 19.32L29.96 19.32L29.96 19.32Q29.22 19.32 28.65 19.24L28.65 19.24L28.65 19.24Q28.08 19.15 27.69 18.97L27.69 18.97L27.69 18.97Q27.30 18.79 27.10 18.52L27.10 18.52L27.10 18.52Q26.90 18.24 26.90 17.85L26.90 17.85L26.90 17.85Q26.90 17.70 26.97 17.63L26.97 17.63L26.97 17.63Q27.05 17.57 27.16 17.53L27.16 17.53L27.16 17.53Q27.27 17.50 27.40 17.47L27.40 17.47L27.40 17.47Q27.53 17.45 27.64 17.37L27.64 17.37L27.64 17.37Q27.75 17.29 27.82 17.14L27.82 17.14L27.82 17.14Q27.90 16.99 27.90 16.71L27.90 16.71L27.90 13.06L27.90 13.06Q27.90 12.79 27.82 12.64L27.82 12.64L27.82 12.64Q27.75 12.49 27.64 12.41L27.64 12.41L27.64 12.41Q27.53 12.33 27.40 12.30L27.40 12.30L27.40 12.30Q27.27 12.28 27.16 12.24L27.16 12.24L27.16 12.24Q27.05 12.21 26.97 12.14L26.97 12.14L26.97 12.14Q26.90 12.08 26.90 11.93L26.90 11.93L26.90 11.93Q26.90 11.54 27.10 11.26L27.10 11.26L27.10 11.26Q27.30 10.99 27.69 10.80L27.69 10.80L27.69 10.80Q28.08 10.62 28.65 10.54L28.65 10.54L28.65 10.54Q29.22 10.46 29.96 10.46L29.96 10.46L29.96 10.46Q30.69 10.46 31.12 10.53L31.12 10.53L31.12 10.53Q31.54 10.61 31.76 10.79L31.76 10.79L31.76 10.79Q31.97 10.97 32.03 11.28L32.03 11.28L32.03 11.28Q32.08 11.59 32.08 12.05L32.08 12.05ZM38.84 12.81L40.11 14.95L41.11 12.81L41.11 12.81Q41.17 12.69 41.17 12.64L41.17 12.64L41.17 12.64Q41.18 12.58 41.18 12.52L41.18 12.52L41.18 12.43L41.18 12.43Q41.18 12.34 41.04 12.25L41.04 12.25L41.04 12.25Q40.90 12.16 40.73 12.07L40.73 12.07L40.73 12.07Q40.56 11.97 40.42 11.86L40.42 11.86L40.42 11.86Q40.28 11.75 40.28 11.62L40.28 11.62L40.28 11.62Q40.28 11.26 40.55 11.03L40.55 11.03L40.55 11.03Q40.82 10.80 41.22 10.67L41.22 10.67L41.22 10.67Q41.62 10.55 42.08 10.50L42.08 10.50L42.08 10.50Q42.53 10.46 42.92 10.46L42.92 10.46L42.92 10.46Q43.80 10.46 44.29 10.73L44.29 10.73L44.29 10.73Q44.77 11.00 44.77 11.62L44.77 11.62L44.77 11.62Q44.77 11.78 44.68 11.86L44.68 11.86L44.68 11.86Q44.58 11.95 44.43 12.00L44.43 12.00L44.43 12.00Q44.28 12.06 44.10 12.10L44.10 12.10L44.10 12.10Q43.91 12.15 43.72 12.23L43.72 12.23L43.72 12.23Q43.54 12.31 43.37 12.44L43.37 12.44L43.37 12.44Q43.21 12.58 43.10 12.81L43.10 12.81L39.70 20.19L39.70 20.19Q39.29 21.06 38.89 21.67L38.89 21.67L38.89 21.67Q38.48 22.27 38.07 22.65L38.07 22.65L38.07 22.65Q37.67 23.03 37.27 23.20L37.27 23.20L37.27 23.20Q36.87 23.37 36.48 23.37L36.48 23.37L36.48 23.37Q36.00 23.37 35.58 23.15L35.58 23.15L35.58 23.15Q35.16 22.93 34.86 22.59L34.86 22.59L34.86 22.59Q34.55 22.24 34.37 21.82L34.37 21.82L34.37 21.82Q34.19 21.40 34.19 20.97L34.19 20.97L34.19 20.97Q34.19 20.43 34.31 20.07L34.31 20.07L34.31 20.07Q34.43 19.70 34.62 19.48L34.62 19.48L34.62 19.48Q34.82 19.26 35.06 19.16L35.06 19.16L35.06 19.16Q35.30 19.07 35.55 19.07L35.55 19.07L35.55 19.07Q35.86 19.07 36.07 19.21L36.07 19.21L36.07 19.21Q36.29 19.36 36.42 19.57L36.42 19.57L36.42 19.57Q36.56 19.79 36.64 20.05L36.64 20.05L36.64 20.05Q36.73 20.30 36.80 20.52L36.80 20.52L36.80 20.52Q36.87 20.73 36.93 20.88L36.93 20.88L36.93 20.88Q36.99 21.03 37.08 21.03L37.08 21.03L37.08 21.03Q37.14 21.03 37.23 20.94L37.23 20.94L37.23 20.94Q37.32 20.84 37.45 20.63L37.45 20.63L37.45 20.63Q37.57 20.41 37.73 20.06L37.73 20.06L37.73 20.06Q37.90 19.71 38.12 19.21L38.12 19.21L34.66 12.81L34.66 12.81Q34.53 12.57 34.36 12.44L34.36 12.44L34.36 12.44Q34.20 12.30 34.03 12.23L34.03 12.23L34.03 12.23Q33.87 12.16 33.71 12.12L33.71 12.12L33.71 12.12Q33.55 12.09 33.42 12.03L33.42 12.03L33.42 12.03Q33.30 11.98 33.22 11.89L33.22 11.89L33.22 11.89Q33.15 11.81 33.15 11.62L33.15 11.62L33.15 11.62Q33.15 11.37 33.28 11.18L33.28 11.18L33.28 11.18Q33.41 11.00 33.63 10.87L33.63 10.87L33.63 10.87Q33.86 10.74 34.17 10.66L34.17 10.66L34.17 10.66Q34.47 10.58 34.83 10.54L34.83 10.54L34.83 10.54Q35.18 10.49 35.56 10.48L35.56 10.48L35.56 10.48Q35.94 10.46 36.33 10.46L36.33 10.46L36.33 10.46Q37.11 10.46 37.69 10.51L37.69 10.51L37.69 10.51Q38.27 10.55 38.65 10.68L38.65 10.68L38.65 10.68Q39.04 10.81 39.23 11.04L39.23 11.04L39.23 11.04Q39.42 11.27 39.42 11.62L39.42 11.62L39.42 11.62Q39.42 11.75 39.29 11.85L39.29 11.85L39.29 11.85Q39.17 11.94 39.03 12.02L39.03 12.02L39.03 12.02Q38.88 12.11 38.76 12.19L38.76 12.19L38.76 12.19Q38.64 12.26 38.64 12.37L38.64 12.37L38.64 12.37Q38.64 12.39 38.65 12.43L38.65 12.43L38.65 12.43Q38.68 12.50 38.73 12.58L38.73 12.58L38.73 12.58Q38.77 12.66 38.84 12.81L38.84 12.81ZM49.31 17.92L49.31 17.92L49.31 17.92Q49.53 17.92 49.67 17.85L49.67 17.85L49.67 17.85Q49.81 17.77 49.89 17.64L49.89 17.64L49.89 17.64Q49.96 17.51 49.99 17.31L49.99 17.31L49.99 17.31Q50.01 17.12 50.01 16.87L50.01 16.87L50.01 16.87Q50.01 16.66 50.00 16.33L50.00 16.33L50.00 16.33Q50.00 16.00 49.99 15.69L49.99 15.69L49.99 15.69Q49.98 15.32 49.97 14.92L49.97 14.92L49.97 14.92Q49.88 14.91 49.79 14.90L49.79 14.90L49.79 14.90Q49.70 14.89 49.62 14.89L49.62 14.89L49.62 14.89Q49.27 14.89 49.04 15.03L49.04 15.03L49.04 15.03Q48.80 15.17 48.66 15.42L48.66 15.42L48.66 15.42Q48.51 15.67 48.46 16.01L48.46 16.01L48.46 16.01Q48.40 16.34 48.40 16.74L48.40 16.74L48.40 16.74Q48.40 16.98 48.43 17.20L48.43 17.20L48.43 17.20Q48.45 17.41 48.55 17.57L48.55 17.57L48.55 17.57Q48.64 17.73 48.83 17.82L48.83 17.82L48.83 17.82Q49.01 17.92 49.31 17.92ZM52.60 19.32L52.60 19.32L52.60 19.32Q52.25 19.32 51.91 19.28L51.91 19.28L51.91 19.28Q51.56 19.24 51.25 19.13L51.25 19.13L51.25 19.13Q50.94 19.01 50.68 18.79L50.68 18.79L50.68 18.79Q50.42 18.57 50.24 18.21L50.24 18.21L50.24 18.21Q50.10 18.53 49.80 18.77L49.80 18.77L49.80 18.77Q49.49 19.01 49.11 19.17L49.11 19.17L49.11 19.17Q48.72 19.33 48.29 19.41L48.29 19.41L48.29 19.41Q47.87 19.49 47.48 19.49L47.48 19.49L47.48 19.49Q46.79 19.49 46.27 19.33L46.27 19.33L46.27 19.33Q45.75 19.16 45.39 18.86L45.39 18.86L45.39 18.86Q45.04 18.55 44.86 18.13L44.86 18.13L44.86 18.13Q44.68 17.71 44.68 17.18L44.68 17.18L44.68 17.18Q44.68 16.56 44.89 16.00L44.89 16.00L44.89 16.00Q45.10 15.44 45.60 15.03L45.60 15.03L45.60 15.03Q46.10 14.61 46.94 14.37L46.94 14.37L46.94 14.37Q47.78 14.12 49.05 14.12L49.05 14.12L49.98 14.12L49.98 14.12Q49.98 13.36 49.93 12.87L49.93 12.87L49.93 12.87Q49.88 12.37 49.77 12.07L49.77 12.07L49.77 12.07Q49.66 11.78 49.50 11.66L49.50 11.66L49.50 11.66Q49.33 11.55 49.10 11.55L49.10 11.55L49.10 11.55Q48.84 11.55 48.67 11.70L48.67 11.70L48.67 11.70Q48.49 11.86 48.39 12.16L48.39 12.16L48.39 12.16Q48.28 12.46 48.24 12.88L48.24 12.88L48.24 12.88Q48.19 13.30 48.19 13.83L48.19 13.83L48.19 13.83Q47.90 13.83 47.57 13.82L47.57 13.82L47.57 13.82Q47.25 13.81 46.93 13.77L46.93 13.77L46.93 13.77Q46.61 13.73 46.33 13.64L46.33 13.64L46.33 13.64Q46.05 13.56 45.83 13.41L45.83 13.41L45.83 13.41Q45.61 13.26 45.48 13.04L45.48 13.04L45.48 13.04Q45.35 12.81 45.35 12.49L45.35 12.49L45.35 12.49Q45.35 12.04 45.59 11.63L45.59 11.63L45.59 11.63Q45.82 11.23 46.31 10.93L46.31 10.93L46.31 10.93Q46.80 10.62 47.55 10.44L47.55 10.44L47.55 10.44Q48.30 10.26 49.34 10.26L49.34 10.26L49.34 10.26Q50.55 10.26 51.43 10.51L51.43 10.51L51.43 10.51Q52.30 10.75 52.87 11.25L52.87 11.25L52.87 11.25Q53.43 11.74 53.70 12.49L53.70 12.49L53.70 12.49Q53.97 13.23 53.97 14.24L53.97 14.24L53.97 16.66L53.97 16.66Q53.97 16.95 54.05 17.12L54.05 17.12L54.05 17.12Q54.13 17.28 54.24 17.37L54.24 17.37L54.24 17.37Q54.35 17.45 54.49 17.49L54.49 17.49L54.49 17.49Q54.63 17.52 54.74 17.56L54.74 17.56L54.74 17.56Q54.85 17.60 54.93 17.66L54.93 17.66L54.93 17.66Q55.01 17.73 55.01 17.88L55.01 17.88L55.01 17.88Q55.01 18.56 54.40 18.94L54.40 18.94L54.40 18.94Q53.79 19.32 52.60 19.32ZM56.44 8.11L56.44 8.11L56.44 8.11Q56.44 7.77 56.56 7.51L56.56 7.51L56.56 7.51Q56.68 7.25 56.86 7.06L56.86 7.06L56.86 7.06Q57.05 6.88 57.30 6.75L57.30 6.75L57.30 6.75Q57.54 6.62 57.78 6.55L57.78 6.55L57.78 6.55Q58.03 6.47 58.26 6.44L58.26 6.44L58.26 6.44Q58.49 6.41 58.66 6.41L58.66 6.41L58.66 6.41Q58.84 6.41 59.08 6.44L59.08 6.44L59.08 6.44Q59.32 6.47 59.56 6.55L59.56 6.55L59.56 6.55Q59.81 6.62 60.05 6.75L60.05 6.75L60.05 6.75Q60.29 6.88 60.47 7.06L60.47 7.06L60.47 7.06Q60.66 7.25 60.77 7.51L60.77 7.51L60.77 7.51Q60.89 7.77 60.89 8.11L60.89 8.11L60.89 8.11Q60.89 8.44 60.77 8.70L60.77 8.70L60.77 8.70Q60.66 8.96 60.47 9.15L60.47 9.15L60.47 9.15Q60.29 9.33 60.05 9.46L60.05 9.46L60.05 9.46Q59.81 9.58 59.56 9.66L59.56 9.66L59.56 9.66Q59.32 9.73 59.08 9.77L59.08 9.77L59.08 9.77Q58.84 9.80 58.66 9.80L58.66 9.80L58.66 9.80Q58.49 9.80 58.26 9.77L58.26 9.77L58.26 9.77Q58.03 9.73 57.78 9.66L57.78 9.66L57.78 9.66Q57.54 9.58 57.30 9.46L57.30 9.46L57.30 9.46Q57.05 9.33 56.86 9.15L56.86 9.15L56.86 9.15Q56.68 8.96 56.56 8.71L56.56 8.71L56.56 8.71Q56.44 8.45 56.44 8.11ZM60.68 12.05L60.68 16.71L60.68 16.71Q60.68 16.99 60.75 17.14L60.75 17.14L60.75 17.14Q60.83 17.29 60.94 17.37L60.94 17.37L60.94 17.37Q61.05 17.45 61.18 17.47L61.18 17.47L61.18 17.47Q61.31 17.50 61.42 17.53L61.42 17.53L61.42 17.53Q61.54 17.57 61.61 17.63L61.61 17.63L61.61 17.63Q61.69 17.70 61.69 17.85L61.69 17.85L61.69 17.85Q61.69 18.63 60.88 18.97L60.88 18.97L60.88 18.97Q60.07 19.32 58.55 19.32L58.55 19.32L58.55 19.32Q57.81 19.32 57.24 19.24L57.24 19.24L57.24 19.24Q56.68 19.15 56.29 18.97L56.29 18.97L56.29 18.97Q55.90 18.79 55.70 18.52L55.70 18.52L55.70 18.52Q55.49 18.24 55.49 17.85L55.49 17.85L55.49 17.85Q55.49 17.70 55.57 17.63L55.57 17.63L55.57 17.63Q55.64 17.57 55.75 17.53L55.75 17.53L55.75 17.53Q55.86 17.50 55.99 17.47L55.99 17.47L55.99 17.47Q56.12 17.45 56.23 17.37L56.23 17.37L56.23 17.37Q56.34 17.29 56.42 17.14L56.42 17.14L56.42 17.14Q56.49 16.99 56.49 16.71L56.49 16.71L56.49 13.06L56.49 13.06Q56.49 12.79 56.42 12.64L56.42 12.64L56.42 12.64Q56.34 12.49 56.23 12.41L56.23 12.41L56.23 12.41Q56.12 12.33 55.99 12.30L55.99 12.30L55.99 12.30Q55.86 12.28 55.75 12.24L55.75 12.24L55.75 12.24Q55.64 12.21 55.57 12.14L55.57 12.14L55.57 12.14Q55.49 12.08 55.49 11.93L55.49 11.93L55.49 11.93Q55.49 11.54 55.70 11.26L55.70 11.26L55.70 11.26Q55.90 10.99 56.29 10.80L56.29 10.80L56.29 10.80Q56.68 10.62 57.24 10.54L57.24 10.54L57.24 10.54Q57.81 10.46 58.55 10.46L58.55 10.46L58.55 10.46Q59.29 10.46 59.71 10.53L59.71 10.53L59.71 10.53Q60.14 10.61 60.35 10.79L60.35 10.79L60.35 10.79Q60.57 10.97 60.62 11.28L60.62 11.28L60.62 11.28Q60.68 11.59 60.68 12.05L60.68 12.05ZM67.57 13.06L67.56 16.69L67.56 16.69Q67.56 16.97 67.63 17.12L67.63 17.12L67.63 17.12Q67.71 17.28 67.82 17.36L67.82 17.36L67.82 17.36Q67.94 17.44 68.07 17.47L68.07 17.47L68.07 17.47Q68.20 17.50 68.31 17.53L68.31 17.53L68.31 17.53Q68.42 17.57 68.50 17.63L68.50 17.63L68.50 17.63Q68.57 17.70 68.57 17.85L68.57 17.85L68.57 17.85Q68.57 18.63 67.76 18.97L67.76 18.97L67.76 18.97Q66.96 19.32 65.43 19.32L65.43 19.32L65.43 19.32Q64.70 19.32 64.13 19.24L64.13 19.24L64.13 19.24Q63.56 19.15 63.17 18.97L63.17 18.97L63.17 18.97Q62.78 18.79 62.58 18.52L62.58 18.52L62.58 18.52Q62.38 18.24 62.38 17.85L62.38 17.85L62.38 17.85Q62.38 17.70 62.45 17.63L62.45 17.63L62.45 17.63Q62.53 17.57 62.64 17.53L62.64 17.53L62.64 17.53Q62.75 17.50 62.88 17.47L62.88 17.47L62.88 17.47Q63.01 17.45 63.12 17.37L63.12 17.37L63.12 17.37Q63.23 17.29 63.30 17.14L63.30 17.14L63.30 17.14Q63.38 16.99 63.38 16.71L63.38 16.71L63.38 13.06L63.38 13.06Q63.38 12.79 63.30 12.64L63.30 12.64L63.30 12.64Q63.23 12.49 63.12 12.41L63.12 12.41L63.12 12.41Q63.01 12.33 62.88 12.30L62.88 12.30L62.88 12.30Q62.75 12.28 62.64 12.24L62.64 12.24L62.64 12.24Q62.53 12.21 62.45 12.14L62.45 12.14L62.45 12.14Q62.38 12.08 62.38 11.93L62.38 11.93L62.38 11.93Q62.38 11.54 62.58 11.26L62.58 11.26L62.58 11.26Q62.78 10.99 63.17 10.80L63.17 10.80L63.17 10.80Q63.56 10.62 64.13 10.54L64.13 10.54L64.13 10.54Q64.70 10.46 65.43 10.46L65.43 10.46L65.43 10.46Q66.10 10.46 66.50 10.57L66.50 10.57L66.50 10.57Q66.90 10.68 67.12 10.82L67.12 10.82L67.12 10.82Q67.37 10.99 67.46 11.18L67.46 11.18L67.46 11.18Q67.82 10.93 68.31 10.73L68.31 10.73L68.31 10.73Q68.74 10.55 69.35 10.40L69.35 10.40L69.35 10.40Q69.96 10.26 70.78 10.26L70.78 10.26L70.78 10.26Q71.53 10.26 72.07 10.45L72.07 10.45L72.07 10.45Q72.62 10.64 73.00 10.95L73.00 10.95L73.00 10.95Q73.38 11.27 73.61 11.69L73.61 11.69L73.61 11.69Q73.84 12.11 73.97 12.57L73.97 12.57L73.97 12.57Q74.09 13.03 74.14 13.50L74.14 13.50L74.14 13.50Q74.18 13.97 74.18 14.39L74.18 14.39L74.18 16.65L74.18 16.65Q74.18 16.94 74.26 17.10L74.26 17.10L74.26 17.10Q74.33 17.26 74.45 17.35L74.45 17.35L74.45 17.35Q74.57 17.43 74.70 17.46L74.70 17.46L74.70 17.46Q74.83 17.49 74.95 17.53L74.95 17.53L74.95 17.53Q75.07 17.57 75.14 17.63L75.14 17.63L75.14 17.63Q75.22 17.70 75.22 17.85L75.22 17.85L75.22 17.85Q75.22 18.63 74.41 18.97L74.41 18.97L74.41 18.97Q73.61 19.32 72.08 19.32L72.08 19.32L72.08 19.32Q71.35 19.32 70.78 19.24L70.78 19.24L70.78 19.24Q70.21 19.15 69.82 18.97L69.82 18.97L69.82 18.97Q69.43 18.79 69.23 18.52L69.23 18.52L69.23 18.52Q69.03 18.24 69.03 17.85L69.03 17.85L69.03 17.85Q69.03 17.70 69.10 17.63L69.10 17.63L69.10 17.63Q69.18 17.57 69.30 17.53L69.30 17.53L69.30 17.53Q69.41 17.50 69.54 17.47L69.54 17.47L69.54 17.47Q69.67 17.45 69.79 17.37L69.79 17.37L69.79 17.37Q69.90 17.29 69.98 17.14L69.98 17.14L69.98 17.14Q70.05 16.99 70.05 16.71L70.05 16.71L70.05 13.79L70.05 13.79Q70.05 13.37 69.99 13.04L69.99 13.04L69.99 13.04Q69.92 12.71 69.77 12.48L69.77 12.48L69.77 12.48Q69.62 12.25 69.36 12.13L69.36 12.13L69.36 12.13Q69.11 12.01 68.74 12.01L68.74 12.01L68.74 12.01Q68.50 12.01 68.28 12.09L68.28 12.09L68.28 12.09Q68.07 12.17 67.92 12.31L67.92 12.31L67.92 12.31Q67.76 12.45 67.67 12.64L67.67 12.64L67.67 12.64Q67.57 12.84 67.57 13.06L67.57 13.06ZM76.45 10.46L76.82 10.46L76.82 10.46Q76.82 9.97 76.92 9.49L76.92 9.49L76.92 9.49Q77.01 9.02 77.22 8.59L77.22 8.59L77.22 8.59Q77.42 8.16 77.75 7.80L77.75 7.80L77.75 7.80Q78.07 7.43 78.53 7.17L78.53 7.17L78.53 7.17Q79.00 6.90 79.60 6.75L79.60 6.75L79.60 6.75Q80.20 6.60 80.96 6.60L80.96 6.60L80.96 6.60Q81.67 6.60 82.30 6.72L82.30 6.72L82.30 6.72Q82.93 6.83 83.40 7.09L83.40 7.09L83.40 7.09Q83.87 7.34 84.15 7.76L84.15 7.76L84.15 7.76Q84.42 8.18 84.42 8.79L84.42 8.79L84.42 8.79Q84.42 8.98 84.35 9.21L84.35 9.21L84.35 9.21Q84.28 9.44 84.11 9.64L84.11 9.64L84.11 9.64Q83.94 9.84 83.65 9.98L83.65 9.98L83.65 9.98Q83.37 10.12 82.95 10.12L82.95 10.12L82.95 10.12Q82.51 10.12 82.21 10.00L82.21 10.00L82.21 10.00Q81.90 9.88 81.71 9.70L81.71 9.70L81.71 9.70Q81.51 9.52 81.43 9.29L81.43 9.29L81.43 9.29Q81.34 9.06 81.34 8.83L81.34 8.83L81.34 8.83Q81.34 8.70 81.37 8.52L81.37 8.52L81.37 8.52Q81.40 8.33 81.50 8.12L81.50 8.12L81.50 8.12Q81.21 8.12 81.02 8.15L81.02 8.15L81.02 8.15Q80.83 8.18 80.72 8.23L80.72 8.23L80.72 8.23Q80.61 8.29 80.56 8.37L80.56 8.37L80.56 8.37Q80.51 8.46 80.51 8.57L80.51 8.57L80.51 8.57Q80.51 8.71 80.58 8.90L80.58 8.90L80.58 8.90Q80.64 9.10 80.71 9.34L80.71 9.34L80.71 9.34Q80.79 9.58 80.85 9.86L80.85 9.86L80.85 9.86Q80.91 10.14 80.91 10.46L80.91 10.46L81.63 10.46L81.63 10.46Q81.72 10.46 81.83 10.47L81.83 10.47L81.83 10.47Q81.95 10.48 82.05 10.54L82.05 10.54L82.05 10.54Q82.15 10.60 82.23 10.74L82.23 10.74L82.23 10.74Q82.30 10.87 82.30 11.12L82.30 11.12L82.30 11.12Q82.30 11.35 82.24 11.49L82.24 11.49L82.24 11.49Q82.19 11.63 82.10 11.70L82.10 11.70L82.10 11.70Q82.02 11.77 81.92 11.79L81.92 11.79L81.92 11.79Q81.82 11.81 81.73 11.81L81.73 11.81L80.96 11.81L80.96 16.70L80.96 16.70Q80.96 16.98 81.04 17.14L81.04 17.14L81.04 17.14Q81.12 17.29 81.22 17.37L81.22 17.37L81.22 17.37Q81.33 17.45 81.47 17.48L81.47 17.48L81.47 17.48Q81.60 17.51 81.71 17.55L81.71 17.55L81.71 17.55Q81.82 17.58 81.89 17.65L81.89 17.65L81.89 17.65Q81.97 17.71 81.97 17.86L81.97 17.86L81.97 17.86Q81.97 18.64 81.17 18.98L81.17 18.98L81.17 18.98Q80.36 19.32 78.84 19.32L78.84 19.32L78.84 19.32Q78.10 19.32 77.53 19.24L77.53 19.24L77.53 19.24Q76.97 19.15 76.58 18.98L76.58 18.98L76.58 18.98Q76.19 18.81 75.98 18.53L75.98 18.53L75.98 18.53Q75.78 18.25 75.78 17.86L75.78 17.86L75.78 17.86Q75.78 17.71 75.86 17.65L75.86 17.65L75.86 17.65Q75.93 17.58 76.04 17.55L76.04 17.55L76.04 17.55Q76.15 17.51 76.28 17.49L76.28 17.49L76.28 17.49Q76.41 17.46 76.52 17.38L76.52 17.38L76.52 17.38Q76.63 17.30 76.71 17.15L76.71 17.15L76.71 17.15Q76.78 17.01 76.78 16.73L76.78 16.73L76.78 11.83L76.45 11.83L76.45 11.83Q76.36 11.83 76.24 11.82L76.24 11.82L76.24 11.82Q76.13 11.81 76.02 11.74L76.02 11.74L76.02 11.74Q75.92 11.67 75.85 11.53L75.85 11.53L75.85 11.53Q75.78 11.38 75.78 11.12L75.78 11.12L75.78 11.12Q75.78 10.87 75.85 10.74L75.85 10.74L75.85 10.74Q75.93 10.60 76.03 10.54L76.03 10.54L76.03 10.54Q76.13 10.48 76.25 10.47L76.25 10.47L76.25 10.47Q76.36 10.46 76.45 10.46L76.45 10.46ZM87.51 19.49L87.51 19.49L87.51 19.49Q86.70 19.49 86.02 19.30L86.02 19.30L86.02 19.30Q85.34 19.11 84.80 18.77L84.80 18.77L84.80 18.77Q84.25 18.44 83.84 17.99L83.84 17.99L83.84 17.99Q83.43 17.54 83.16 17.02L83.16 17.02L83.16 17.02Q82.89 16.50 82.75 15.93L82.75 15.93L82.75 15.93Q82.61 15.36 82.61 14.79L82.61 14.79L82.61 14.79Q82.61 14.21 82.76 13.65L82.76 13.65L82.76 13.65Q82.91 13.08 83.20 12.58L83.20 12.58L83.20 12.58Q83.50 12.07 83.95 11.65L83.95 11.65L83.95 11.65Q84.39 11.22 84.99 10.92L84.99 10.92L84.99 10.92Q85.59 10.61 86.33 10.44L86.33 10.44L86.33 10.44Q87.08 10.26 87.99 10.26L87.99 10.26L87.99 10.26Q88.78 10.26 89.44 10.44L89.44 10.44L89.44 10.44Q90.10 10.62 90.63 10.93L90.63 10.93L90.63 10.93Q91.16 11.24 91.56 11.66L91.56 11.66L91.56 11.66Q91.96 12.09 92.23 12.58L92.23 12.58L92.23 12.58Q92.50 13.08 92.63 13.64L92.63 13.64L92.63 13.64Q92.76 14.19 92.76 14.75L92.76 14.75L92.76 14.75Q92.76 15.33 92.62 15.91L92.62 15.91L92.62 15.91Q92.48 16.50 92.19 17.02L92.19 17.02L92.19 17.02Q91.90 17.55 91.46 18.00L91.46 18.00L91.46 18.00Q91.02 18.45 90.44 18.78L90.44 18.78L90.44 18.78Q89.85 19.11 89.12 19.30L89.12 19.30L89.12 19.30Q88.39 19.49 87.51 19.49ZM87.82 17.74L87.82 17.74L87.82 17.74Q88.05 17.74 88.20 17.61L88.20 17.61L88.20 17.61Q88.35 17.47 88.45 17.22L88.45 17.22L88.45 17.22Q88.55 16.97 88.59 16.61L88.59 16.61L88.59 16.61Q88.63 16.25 88.63 15.80L88.63 15.80L88.63 15.80Q88.63 15.42 88.62 14.98L88.62 14.98L88.62 14.98Q88.61 14.55 88.59 14.13L88.59 14.13L88.59 14.13Q88.56 13.71 88.50 13.32L88.50 13.32L88.50 13.32Q88.44 12.94 88.32 12.65L88.32 12.65L88.32 12.65Q88.21 12.35 88.04 12.18L88.04 12.18L88.04 12.18Q87.87 12.01 87.62 12.01L87.62 12.01L87.62 12.01Q87.38 12.01 87.22 12.14L87.22 12.14L87.22 12.14Q87.05 12.28 86.94 12.52L86.94 12.52L86.94 12.52Q86.83 12.76 86.78 13.09L86.78 13.09L86.78 13.09Q86.73 13.43 86.73 13.83L86.73 13.83L86.73 13.83Q86.73 14.21 86.74 14.64L86.74 14.64L86.74 14.64Q86.75 15.08 86.80 15.51L86.80 15.51L86.80 15.51Q86.84 15.95 86.92 16.35L86.92 16.35L86.92 16.35Q86.99 16.75 87.11 17.06L87.11 17.06L87.11 17.06Q87.23 17.37 87.41 17.55L87.41 17.55L87.41 17.55Q87.58 17.74 87.82 17.74ZM98.12 11.83L98.13 15.91L98.13 15.91Q98.13 16.14 98.14 16.35L98.14 16.35L98.14 16.35Q98.16 16.56 98.23 16.72L98.23 16.72L98.23 16.72Q98.29 16.88 98.44 16.98L98.44 16.98L98.44 16.98Q98.58 17.08 98.83 17.08L98.83 17.08L98.83 17.08Q99.19 17.08 99.45 16.98L99.45 16.98L99.45 16.98Q99.72 16.89 100.00 16.74L100.00 16.74L100.00 16.74Q100.11 16.68 100.20 16.68L100.20 16.68L100.20 16.68Q100.36 16.68 100.45 16.82L100.45 16.82L100.45 16.82Q100.54 16.95 100.54 17.12L100.54 17.12L100.54 17.12Q100.54 17.24 100.51 17.32L100.51 17.32L100.51 17.32Q100.31 17.82 100.00 18.22L100.00 18.22L100.00 18.22Q99.69 18.63 99.28 18.91L99.28 18.91L99.28 18.91Q98.88 19.19 98.39 19.34L98.39 19.34L98.39 19.34Q97.90 19.49 97.35 19.49L97.35 19.49L97.35 19.49Q96.58 19.49 96.04 19.29L96.04 19.29L96.04 19.29Q95.49 19.10 95.12 18.77L95.12 18.77L95.12 18.77Q94.74 18.45 94.51 18.02L94.51 18.02L94.51 18.02Q94.29 17.60 94.17 17.13L94.17 17.13L94.17 17.13Q94.05 16.66 94.01 16.18L94.01 16.18L94.01 16.18Q93.97 15.71 93.97 15.29L93.97 15.29L93.97 11.83L93.64 11.83L93.64 11.83Q93.39 11.83 93.24 11.68L93.24 11.68L93.24 11.68Q93.10 11.53 93.10 11.35L93.10 11.35L93.10 11.35Q93.10 11.14 93.29 11.00L93.29 11.00L93.29 11.00Q94.09 10.42 94.75 9.89L94.75 9.89L94.75 9.89Q95.42 9.35 95.89 8.93L95.89 8.93L95.89 8.93Q96.46 8.44 96.90 8.00L96.90 8.00L96.90 8.00Q97.08 7.83 97.26 7.74L97.26 7.74L97.26 7.74Q97.45 7.66 97.62 7.66L97.62 7.66L97.62 7.66Q97.83 7.66 97.97 7.80L97.97 7.80L97.97 7.80Q98.12 7.94 98.12 8.24L98.12 8.24L98.12 10.46L99.78 10.46L99.78 10.46Q99.87 10.46 99.98 10.47L99.98 10.47L99.98 10.47Q100.09 10.48 100.19 10.54L100.19 10.54L100.19 10.54Q100.30 10.60 100.37 10.74L100.37 10.74L100.37 10.74Q100.44 10.87 100.44 11.12L100.44 11.12L100.44 11.12Q100.44 11.38 100.37 11.53L100.37 11.53L100.37 11.53Q100.30 11.67 100.20 11.74L100.20 11.74L100.20 11.74Q100.10 11.81 99.99 11.82L99.99 11.82L99.99 11.82Q99.87 11.83 99.78 11.83L99.78 11.83L98.12 11.83ZM106.00 12.01L106.00 12.01L106.00 12.01Q105.78 12.01 105.59 12.11L105.59 12.11L105.59 12.11Q105.40 12.21 105.26 12.41L105.26 12.41L105.26 12.41Q105.12 12.62 105.04 12.94L105.04 12.94L105.04 12.94Q104.96 13.25 104.96 13.69L104.96 13.69L107.14 13.69L107.14 13.69Q107.14 13.21 107.06 12.89L107.06 12.89L107.06 12.89Q106.99 12.56 106.85 12.37L106.85 12.37L106.85 12.37Q106.70 12.17 106.49 12.09L106.49 12.09L106.49 12.09Q106.27 12.01 106.00 12.01ZM105.49 10.26L105.49 10.26L105.49 10.26Q106.41 10.26 107.14 10.53L107.14 10.53L107.14 10.53Q107.88 10.81 108.39 11.29L108.39 11.29L108.39 11.29Q108.91 11.76 109.19 12.41L109.19 12.41L109.19 12.41Q109.46 13.06 109.46 13.80L109.46 13.80L109.46 13.80Q109.46 14.11 109.38 14.28L109.38 14.28L109.38 14.28Q109.29 14.45 109.14 14.53L109.14 14.53L109.14 14.53Q108.98 14.62 108.75 14.64L108.75 14.64L108.75 14.64Q108.51 14.66 108.22 14.66L108.22 14.66L104.93 14.66L104.93 14.66Q104.93 15.41 105.09 15.88L105.09 15.88L105.09 15.88Q105.24 16.34 105.51 16.60L105.51 16.60L105.51 16.60Q105.79 16.86 106.17 16.96L106.17 16.96L106.17 16.96Q106.55 17.05 107.02 17.05L107.02 17.05L107.02 17.05Q107.26 17.05 107.53 17.00L107.53 17.00L107.53 17.00Q107.79 16.95 108.03 16.88L108.03 16.88L108.03 16.88Q108.27 16.80 108.48 16.72L108.48 16.72L108.48 16.72Q108.68 16.64 108.82 16.56L108.82 16.56L108.82 16.56Q108.93 16.50 109.03 16.50L109.03 16.50L109.03 16.50Q109.19 16.50 109.28 16.64L109.28 16.64L109.28 16.64Q109.37 16.77 109.37 16.93L109.37 16.93L109.37 16.93Q109.37 16.99 109.36 17.04L109.36 17.04L109.36 17.04Q109.35 17.08 109.33 17.13L109.33 17.13L109.33 17.13Q109.14 17.64 108.79 18.07L108.79 18.07L108.79 18.07Q108.45 18.50 107.96 18.82L107.96 18.82L107.96 18.82Q107.47 19.13 106.83 19.31L106.83 19.31L106.83 19.31Q106.19 19.49 105.39 19.49L105.39 19.49L105.39 19.49Q104.62 19.49 103.99 19.31L103.99 19.31L103.99 19.31Q103.36 19.13 102.85 18.80L102.85 18.80L102.85 18.80Q102.34 18.48 101.96 18.04L101.96 18.04L101.96 18.04Q101.58 17.60 101.32 17.09L101.32 17.09L101.32 17.09Q101.07 16.57 100.94 16.01L100.94 16.01L100.94 16.01Q100.82 15.44 100.82 14.87L100.82 14.87L100.82 14.87Q100.82 14.29 100.95 13.72L100.95 13.72L100.95 13.72Q101.08 13.15 101.34 12.63L101.34 12.63L101.34 12.63Q101.60 12.12 101.99 11.69L101.99 11.69L101.99 11.69Q102.38 11.25 102.89 10.93L102.89 10.93L102.89 10.93Q103.41 10.62 104.06 10.44L104.06 10.44L104.06 10.44Q104.71 10.26 105.49 10.26ZM114.69 10.26L114.69 10.26L114.69 10.26Q115.71 10.26 116.43 10.49L116.43 10.49L116.43 10.49Q117.15 10.71 117.61 11.09L117.61 11.09L117.61 11.09Q118.07 11.48 118.28 11.99L118.28 11.99L118.28 11.99Q118.49 12.50 118.49 13.08L118.49 13.08L118.49 13.08Q118.49 13.32 118.42 13.50L118.42 13.50L118.42 13.50Q118.34 13.69 118.22 13.82L118.22 13.82L118.22 13.82Q118.09 13.95 117.91 14.01L117.91 14.01L117.91 14.01Q117.74 14.08 117.53 14.08L117.53 14.08L117.53 14.08Q117.35 14.08 117.17 14.02L117.17 14.02L117.17 14.02Q116.98 13.96 116.82 13.82L116.82 13.82L116.82 13.82Q116.66 13.69 116.53 13.47L116.53 13.47L116.53 13.47Q116.40 13.25 116.33 12.93L116.33 12.93L116.33 12.93Q116.27 12.71 116.16 12.54L116.16 12.54L116.16 12.54Q116.05 12.37 115.91 12.25L115.91 12.25L115.91 12.25Q115.77 12.13 115.61 12.07L115.61 12.07L115.61 12.07Q115.44 12.01 115.27 12.01L115.27 12.01L115.27 12.01Q114.98 12.01 114.77 12.13L114.77 12.13L114.77 12.13Q114.55 12.26 114.41 12.49L114.41 12.49L114.41 12.49Q114.26 12.73 114.19 13.07L114.19 13.07L114.19 13.07Q114.13 13.41 114.13 13.83L114.13 13.83L114.13 13.83Q114.13 15.47 114.62 16.26L114.62 16.26L114.62 16.26Q115.12 17.05 116.21 17.05L116.21 17.05L116.21 17.05Q116.53 17.05 116.85 16.96L116.85 16.96L116.85 16.96Q117.18 16.88 117.46 16.78L117.46 16.78L117.46 16.78Q117.74 16.67 117.95 16.59L117.95 16.59L117.95 16.59Q118.15 16.50 118.23 16.50L118.23 16.50L118.23 16.50Q118.38 16.50 118.47 16.64L118.47 16.64L118.47 16.64Q118.56 16.77 118.56 16.94L118.56 16.94L118.56 16.94Q118.56 16.99 118.56 17.04L118.56 17.04L118.56 17.04Q118.56 17.09 118.54 17.14L118.54 17.14L118.54 17.14Q118.34 17.64 117.97 18.07L117.97 18.07L117.97 18.07Q117.61 18.50 117.11 18.82L117.11 18.82L117.11 18.82Q116.61 19.13 115.97 19.31L115.97 19.31L115.97 19.31Q115.34 19.49 114.59 19.49L114.59 19.49L114.59 19.49Q113.83 19.49 113.19 19.31L113.19 19.31L113.19 19.31Q112.55 19.13 112.04 18.80L112.04 18.80L112.04 18.80Q111.54 18.48 111.16 18.04L111.16 18.04L111.16 18.04Q110.78 17.60 110.52 17.09L110.52 17.09L110.52 17.09Q110.26 16.57 110.14 16.01L110.14 16.01L110.14 16.01Q110.01 15.44 110.01 14.87L110.01 14.87L110.01 14.87Q110.01 14.29 110.14 13.72L110.14 13.72L110.14 13.72Q110.27 13.15 110.53 12.63L110.53 12.63L110.53 12.63Q110.79 12.12 111.18 11.69L111.18 11.69L111.18 11.69Q111.57 11.25 112.09 10.93L112.09 10.93L112.09 10.93Q112.61 10.62 113.26 10.44L113.26 10.44L113.26 10.44Q113.91 10.26 114.69 10.26ZM124.33 8.02L124.32 11.45L124.32 11.45Q124.48 11.28 124.74 11.07L124.74 11.07L124.74 11.07Q125.00 10.87 125.38 10.69L125.38 10.69L125.38 10.69Q125.76 10.51 126.27 10.38L126.27 10.38L126.27 10.38Q126.78 10.26 127.44 10.26L127.44 10.26L127.44 10.26Q128.21 10.26 128.75 10.46L128.75 10.46L128.75 10.46Q129.30 10.65 129.68 10.98L129.68 10.98L129.68 10.98Q130.06 11.31 130.29 11.73L130.29 11.73L130.29 11.73Q130.52 12.16 130.64 12.63L130.64 12.63L130.64 12.63Q130.76 13.10 130.81 13.57L130.81 13.57L130.81 13.57Q130.85 14.05 130.85 14.47L130.85 14.47L130.85 16.63L130.85 16.63Q130.85 16.93 130.92 17.09L130.92 17.09L130.92 17.09Q131.00 17.25 131.11 17.34L131.11 17.34L131.11 17.34Q131.23 17.42 131.36 17.46L131.36 17.46L131.36 17.46Q131.50 17.49 131.61 17.53L131.61 17.53L131.61 17.53Q131.73 17.57 131.80 17.63L131.80 17.63L131.80 17.63Q131.88 17.70 131.88 17.85L131.88 17.85L131.88 17.85Q131.88 18.63 131.08 18.97L131.08 18.97L131.08 18.97Q130.27 19.32 128.75 19.32L128.75 19.32L128.75 19.32Q128.01 19.32 127.44 19.24L127.44 19.24L127.44 19.24Q126.88 19.15 126.49 18.97L126.49 18.97L126.49 18.97Q126.10 18.79 125.89 18.52L125.89 18.52L125.89 18.52Q125.69 18.24 125.69 17.85L125.69 17.85L125.69 17.85Q125.69 17.70 125.77 17.63L125.77 17.63L125.77 17.63Q125.84 17.57 125.96 17.53L125.96 17.53L125.96 17.53Q126.08 17.49 126.21 17.46L126.21 17.46L126.21 17.46Q126.33 17.43 126.45 17.35L126.45 17.35L126.45 17.35Q126.57 17.27 126.64 17.11L126.64 17.11L126.64 17.11Q126.72 16.95 126.72 16.66L126.72 16.66L126.72 13.87L126.72 13.87Q126.72 13.43 126.66 13.08L126.66 13.08L126.66 13.08Q126.59 12.74 126.44 12.50L126.44 12.50L126.44 12.50Q126.29 12.26 126.04 12.14L126.04 12.14L126.04 12.14Q125.78 12.01 125.40 12.01L125.40 12.01L125.40 12.01Q125.20 12.01 125.04 12.07L125.04 12.07L125.04 12.07Q124.87 12.12 124.73 12.20L124.73 12.20L124.73 12.20Q124.59 12.28 124.49 12.37L124.49 12.37L124.49 12.37Q124.38 12.46 124.30 12.53L124.30 12.53L124.30 16.69L124.30 16.69Q124.30 16.97 124.38 17.12L124.38 17.12L124.38 17.12Q124.46 17.28 124.57 17.36L124.57 17.36L124.57 17.36Q124.68 17.44 124.81 17.47L124.81 17.47L124.81 17.47Q124.94 17.50 125.05 17.53L125.05 17.53L125.05 17.53Q125.17 17.57 125.24 17.63L125.24 17.63L125.24 17.63Q125.32 17.70 125.32 17.85L125.32 17.85L125.32 17.85Q125.32 18.63 124.51 18.97L124.51 18.97L124.51 18.97Q123.70 19.32 122.18 19.32L122.18 19.32L122.18 19.32Q120.71 19.32 119.92 18.97L119.92 18.97L119.92 18.97Q119.13 18.63 119.13 17.85L119.13 17.85L119.13 17.85Q119.13 17.70 119.20 17.63L119.20 17.63L119.20 17.63Q119.27 17.57 119.39 17.53L119.39 17.53L119.39 17.53Q119.50 17.50 119.63 17.47L119.63 17.47L119.63 17.47Q119.75 17.45 119.86 17.37L119.86 17.37L119.86 17.37Q119.98 17.29 120.05 17.14L120.05 17.14L120.05 17.14Q120.12 16.99 120.12 16.71L120.12 16.71L120.12 9.03L120.12 9.03Q120.12 8.75 120.05 8.60L120.05 8.60L120.05 8.60Q119.98 8.46 119.86 8.38L119.86 8.38L119.86 8.38Q119.75 8.30 119.63 8.27L119.63 8.27L119.63 8.27Q119.50 8.24 119.39 8.21L119.39 8.21L119.39 8.21Q119.27 8.18 119.20 8.11L119.20 8.11L119.20 8.11Q119.13 8.05 119.13 7.90L119.13 7.90L119.13 7.90Q119.13 7.12 119.92 6.77L119.92 6.77L119.92 6.77Q120.71 6.43 122.18 6.43L122.18 6.43L122.18 6.43Q122.92 6.43 123.34 6.50L123.34 6.50L123.34 6.50Q123.77 6.58 123.99 6.76L123.99 6.76L123.99 6.76Q124.21 6.94 124.27 7.25L124.27 7.25L124.27 7.25Q124.33 7.55 124.33 8.02L124.33 8.02Z"></path></g><defs data-v-423bf9ae=""><linearGradient data-v-423bf9ae="" gradientTransform="rotate(25)" id="bff1eae5-6d89-438d-b266-9e22c0da7f24" x1="0%" y1="0%" x2="100%" y2="0%"><stop data-v-423bf9ae="" offset="0%" style="stop-color: rgb(65, 226, 150); stop-opacity: 1;"></stop><stop data-v-423bf9ae="" offset="100%" style="stop-color: rgb(0, 196, 238); stop-opacity: 1;"></stop></linearGradient></defs><g data-v-423bf9ae="" id="6d41cae5-f2f0-4517-a5fd-bf00fdfd0faf" transform="matrix(4.803586662404586,0,0,4.803586662404586,0.14261340152661717,-31.22538662899096)" stroke="none" fill="url(#bff1eae5-6d89-438d-b266-9e22c0da7f24)"><path d="M16 19.586l7.496-12.954H8.504zM7.496 12.414L0 25.368h14.992zM24.504 12.414l-7.496 12.954H32z"></path></g><!----></svg>